<svg xmlns="http://www.w3.org/2000/svg" height="20" width="20"><path d="M5.417 18.917q-.875 0-1.459-.584-.583-.583-.583-1.458V8.708q0-.875.583-1.458.584-.583 1.459-.583v-2q0-1.938 1.343-3.282Q8.104.042 10 .042q1.917 0 3.25 1.343 1.333 1.344 1.333 3.282v2q.875 0 1.459.583.583.583.583 1.458v8.167q0 .875-.583 1.458-.584.584-1.459.584ZM10 14.625q.75 0 1.271-.531.521-.532.521-1.261 0-.75-.532-1.271-.531-.52-1.26-.52-.75 0-1.271.531-.521.531-.521 1.26 0 .75.532 1.271.531.521 1.26.521ZM7.458 6.667h5.084v-2q0-1.063-.74-1.823-.74-.761-1.802-.761t-1.802.761q-.74.76-.74 1.823Z" fill="white"/></svg>